<svg width="60" height="60" viewBox="0 0 60 60" fill="none" xmlns="http://www.w3.org/2000/svg">
<path d="M40.6378 13.5264C35.6607 10.7458 35.6607 3.7565 40.6378 0.975879C45.6149 -1.80474 51.8699 1.6899 51.8699 7.25115C51.8699 12.8124 45.6148 16.3069 40.6378 13.5264ZM33.3448 4.11826H0V6.12802H33.3448V4.11826ZM15.0456 12.0391H0V13.8125H15.0457V12.0391H15.0456ZM16.2656 32.6096H0V34.5011H16.2658V32.6097L16.2656 32.6096ZM11.1419 39.821H0V41.7126H11.142V39.8212L11.1419 39.821ZM9.1616 59.1003C10.7845 56.8902 23.9432 38.4416 25.8128 37.9989C27.7083 38.5068 31.579 39.6114 31.2716 40.1523C30.8806 40.8402 27.0359 45.7388 26.7671 47.0418C26.498 48.3449 28.5151 51.9284 31.6682 49.7023C34.8214 47.4762 41.7051 39.1582 40.9655 37.2037C40.2259 35.249 35.8397 32.4216 30.9354 30.4928C30.801 30.167 34.4988 26.6488 36.4484 23.3911C36.8133 22.7815 43.5079 31.1444 45.6593 30.7534C48.9214 30.1607 59.1854 21.7622 59.7904 20.1334C60.3955 18.5045 59.7107 16.6151 57.4683 15.1243C55.2258 13.6334 49.5588 22.8699 46.0625 22.4789C43.725 22.2176 42.1918 16.8121 36.6501 13.4877C31.7884 10.5713 24.2342 9.51017 22.3857 9.73376C20.3003 9.98606 15.2704 14.5302 8.4127 21.5668C6.18428 23.8532 10.9779 27.9982 12.9844 26.5835C19.0567 22.3025 22.833 16.9817 24.2243 17.0298C25.6155 17.0779 28.9235 18.848 28.9235 18.848C28.9235 18.848 6.38224 49.6366 3.9752 54.2739C1.33901 59.3534 7.53865 61.3105 9.1616 59.1003Z" fill="#FFA826"/>
</svg>
