<svg width="60" height="60" viewBox="0 0 60 60" fill="none" xmlns="http://www.w3.org/2000/svg">
  <path d="M28.9235 18.848L29.0413 18.6275L29.0412 18.6275L29.0407 18.6272L29.0387 18.6261L29.0313 18.6222L29.0027 18.6071C28.9777 18.5939 28.9411 18.5746 28.894 18.5501C28.7999 18.5011 28.6642 18.4312 28.4971 18.3473C28.163 18.1795 27.7026 17.955 27.1978 17.7288C26.6937 17.5029 26.142 17.2738 25.6262 17.0976C25.1162 16.9235 24.6195 16.7933 24.2329 16.78C23.985 16.7714 23.7221 16.8804 23.4621 17.0367C23.1957 17.1969 22.8977 17.4283 22.5712 17.7114C21.9837 18.2209 21.2765 18.9221 20.459 19.7329C20.3686 19.8225 20.2769 19.9134 20.1838 20.0056C18.3074 21.8643 15.858 24.2517 12.8404 26.3792L12.9844 26.5835L12.8404 26.3792C12.4293 26.6691 11.8461 26.6933 11.1872 26.4802C10.533 26.2685 9.84772 25.8346 9.28529 25.2844C8.72167 24.733 8.30067 24.084 8.14767 23.4551C7.99752 22.8379 8.10341 22.2423 8.59174 21.7412L8.43282 21.5864L8.59174 21.7412C12.0192 18.2244 14.9851 15.3355 17.352 13.2956C18.5358 12.2754 19.5651 11.4717 20.4241 10.9087C21.2918 10.34 21.9558 10.0376 22.4157 9.98195C22.8479 9.92967 23.6429 9.95116 24.6836 10.0644C25.7182 10.177 26.9788 10.3783 28.3341 10.6774C31.0485 11.2764 34.1232 12.2634 36.5215 13.7021C39.2495 15.3386 40.9945 17.4887 42.3589 19.2833C42.4761 19.4374 42.5908 19.5893 42.7033 19.7384C43.2417 20.4518 43.7308 21.0997 44.2028 21.6024C44.7714 22.2081 45.3581 22.6517 46.0348 22.7274C47.013 22.8368 48.0926 22.2755 49.1536 21.4856C50.2273 20.6863 51.3457 19.6026 52.4098 18.5684L52.4501 18.5292C53.5074 17.5018 54.5061 16.5312 55.378 15.9022C55.8197 15.5836 56.2114 15.3658 56.5474 15.2684C56.878 15.1725 57.1296 15.1993 57.3299 15.3325C59.5121 16.7832 60.1073 18.5624 59.5561 20.0464L59.7904 20.1334L59.5561 20.0464C59.499 20.2001 59.304 20.4774 58.9568 20.8667C58.6188 21.2456 58.1615 21.7038 57.6153 22.2139C56.5235 23.2335 55.0877 24.4497 53.5676 25.6348C52.0472 26.82 50.4467 27.9709 49.0257 28.8612C47.5928 29.7589 46.377 30.3689 45.6146 30.5075C45.4261 30.5417 45.1466 30.4832 44.7704 30.2996C44.4022 30.12 43.9779 29.8391 43.5161 29.4841C42.5934 28.7746 41.5528 27.7943 40.5597 26.8125C40.0952 26.3533 39.6376 25.8901 39.2093 25.4566C38.7303 24.9718 38.2879 24.5239 37.9132 24.16C37.5567 23.8137 37.2476 23.5292 37.0124 23.3498C36.8978 23.2623 36.7837 23.1863 36.6807 23.1453C36.6304 23.1253 36.5586 23.1037 36.4789 23.1107C36.3842 23.119 36.2907 23.1679 36.2339 23.2627C35.2715 24.8709 33.8727 26.5503 32.7215 27.8776C32.5058 28.1264 32.2981 28.3635 32.1037 28.5854C31.7829 28.9516 31.4985 29.2764 31.2745 29.5431C31.0947 29.7571 30.9471 29.9417 30.8478 30.086C30.7988 30.1572 30.7553 30.2274 30.7261 30.2918C30.7115 30.3239 30.6965 30.3632 30.6883 30.4062C30.6807 30.4462 30.674 30.5147 30.7043 30.5882L30.7449 30.6865L30.8439 30.7255C33.2825 31.6845 35.5891 32.8659 37.3743 34.047C38.267 34.6377 39.0249 35.2253 39.6025 35.7817C40.184 36.3418 40.5661 36.8544 40.7317 37.2921C40.7943 37.4575 40.7875 37.7346 40.6679 38.1398C40.5512 38.5352 40.3395 39.012 40.0485 39.549C39.4669 40.6216 38.5863 41.9022 37.5793 43.1977C35.5613 45.7938 33.0702 48.4065 31.5241 49.498C30.7728 50.0284 30.1114 50.1981 29.5515 50.1595C28.9902 50.1209 28.5018 49.8709 28.1018 49.5099C27.7006 49.1477 27.3952 48.6794 27.207 48.2247C27.0157 47.7625 26.959 47.3487 27.0119 47.0923L27.0119 47.0923C27.0386 46.9632 27.1154 46.7685 27.2448 46.5128C27.372 46.2616 27.5417 45.9673 27.7419 45.6439C28.1422 44.9973 28.6567 44.2463 29.1776 43.5109C29.6208 42.8851 30.0667 42.2733 30.4488 41.7491C30.5155 41.6576 30.5803 41.5687 30.6427 41.4829C31.0564 40.9148 31.3822 40.4636 31.4889 40.2758L31.2716 40.1523L31.489 40.2758C31.5452 40.1769 31.5513 40.0683 31.5203 39.9696C31.4922 39.8803 31.437 39.8077 31.3829 39.7516C31.2751 39.64 31.1137 39.5358 30.9332 39.4388C30.5658 39.2415 30.0362 39.0317 29.4507 38.8272C28.2752 38.4167 26.8262 38.0116 25.8775 37.7574L25.8165 37.7411L25.7551 37.7556C25.5789 37.7974 25.3799 37.9285 25.1791 38.0895C24.9688 38.2582 24.723 38.4879 24.4488 38.7668C23.8998 39.3252 23.221 40.0968 22.4585 41.0119C20.9326 42.843 19.0589 45.2636 17.1951 47.7364C14.2859 51.5961 11.3937 55.5929 9.87989 57.6849C9.45422 58.2731 9.13753 58.7107 8.96009 58.9524C8.61159 59.427 8.00052 59.6984 7.28026 59.7434C6.56238 59.7882 5.76766 59.6042 5.09918 59.206C4.43282 58.8089 3.90226 58.206 3.68637 57.4158C3.47079 56.6268 3.55978 55.617 4.19709 54.389C4.78975 53.2473 6.63863 50.4689 9.09433 46.9246C11.5449 43.3877 14.5873 39.1057 17.5551 34.9677C20.5228 30.8298 23.4153 26.8368 25.566 23.8782C26.6413 22.3989 27.5311 21.1782 28.1521 20.3274C28.4626 19.902 28.7059 19.569 28.8715 19.3425L29.0605 19.0841L29.1089 19.018L29.1211 19.0013L29.1241 18.9971L29.1249 18.996C29.1251 18.9958 29.1252 18.9957 28.9235 18.848ZM28.9235 18.848L29.0414 18.6276L29.2952 18.7634L29.1252 18.9957L28.9235 18.848ZM40.7597 13.3082C35.9534 10.6229 35.9534 3.87935 40.7597 1.19413C45.5824 -1.50023 51.6199 1.89464 51.6199 7.25115C51.6199 12.6076 45.5823 16.0024 40.7597 13.3082ZM0.25 4.36826H33.0948V5.87802H0.25V4.36826ZM0.25 12.2891H14.7957V13.5625H0.25V12.2891ZM0.25 32.8596H16.0158V34.2511H0.25V32.8596ZM0.25 41.4626V40.071H10.892V41.4626H0.25Z" stroke="#FFA826" stroke-width="0.5"/>
</svg>
