<svg width="71" height="61" viewBox="0 0 71 61" fill="none" xmlns="http://www.w3.org/2000/svg">
<path d="M29.4555 32.8542L36.231 35.8127L37.3147 44.5455L62.8712 56.3013" stroke="#FFA826" stroke-width="2" stroke-linecap="round" stroke-linejoin="round"/>
<path d="M39 57C39 57 37.5173 45.4261 37.3866 44.4051C37.2807 43.579 37.3245 43.9204 37.4797 45.1324C37.6502 46.4636 38.9363 56.5026 38.9363 56.5026" stroke="#FFA826" stroke-width="2" stroke-linecap="round" stroke-linejoin="round"/>
<path d="M66.6921 56.3039C66.6921 57.2842 66.2898 58.2243 65.5738 58.9174C64.8578 59.6106 63.8867 60 62.8741 60C61.8615 60 60.8904 59.6106 60.1744 58.9174C59.4583 58.2243 59.0561 57.2842 59.0561 56.3039C59.0561 55.8186 59.1548 55.338 59.3467 54.8895C59.5386 54.4411 59.8198 54.0337 60.1744 53.6905C60.5289 53.3472 60.9498 53.075 61.413 52.8893C61.8762 52.7035 62.3727 52.6079 62.8741 52.6079C63.3755 52.6079 63.8719 52.7035 64.3352 52.8893C64.7984 53.075 65.2193 53.3472 65.5738 53.6905C65.9283 54.0337 66.2096 54.4411 66.4014 54.8895C66.5933 55.338 66.6921 55.8186 66.6921 56.3039" stroke="#FFA826" stroke-width="2" stroke-linecap="round" stroke-linejoin="round"/>
<path d="M69.8534 41.7584L39.4506 36.9163V38.2132L40.6229 38.473L40.6517 45.7389L57.3149 53.1762L69.8534 41.7584Z" stroke="#FFA826" stroke-width="2" stroke-linecap="round" stroke-linejoin="round"/>
<path d="M1.4595 11.314C1.18765 11.3141 0.923988 11.2209 0.71265 11.05C0.501313 10.879 0.355133 10.6406 0.298587 10.3746C0.24204 10.1087 0.278558 9.83148 0.402028 9.58929C0.525498 9.34709 0.728423 9.15467 0.976829 9.04423L19.2036 0.356072C19.8012 0.0917495 20.5022 0.361817 20.7665 0.959416C21.0308 1.55701 20.7608 2.25804 20.1632 2.52237L1.93643 11.2163C1.78129 11.2852 1.6204 11.314 1.4595 11.314V11.314Z" fill="#78A3AD"/>
<path d="M58.8346 11.4922C58.7484 11.4922 58.6565 11.4807 58.5703 11.4635L20.3183 2.60294C20.1664 2.56864 20.0228 2.50465 19.8957 2.41465C19.7686 2.32465 19.6606 2.21041 19.5778 2.07851C19.495 1.94661 19.4392 1.79965 19.4134 1.64607C19.3876 1.4925 19.3925 1.33534 19.4276 1.18365C19.4619 1.03175 19.5259 0.88813 19.6159 0.76105C19.7059 0.633971 19.8202 0.525939 19.9521 0.443166C20.084 0.360394 20.2309 0.304515 20.3845 0.278743C20.5381 0.252971 20.6952 0.257815 20.8469 0.292995L59.099 9.15928C59.7368 9.30294 60.139 9.94076 59.9896 10.5786C59.9286 10.8389 59.7812 11.071 59.5715 11.2369C59.3618 11.4028 59.102 11.4928 58.8346 11.4922Z" fill="#78A3AD"/>
<path d="M13.7852 58.7028C13.2318 58.7028 12.7852 58.1742 12.7852 57.5191V10.5272C12.7852 9.87215 13.2318 9.34351 13.7852 9.34351C14.3386 9.34351 14.7852 9.87215 14.7852 10.5272V57.5134C14.7852 58.1684 14.3386 58.7028 13.7852 58.7028V58.7028Z" fill="#FFA826"/>
<path d="M26.1565 58.7028C25.6032 58.7028 25.1566 58.1742 25.1566 57.5191V10.5272C25.1566 9.87215 25.6032 9.34351 26.1565 9.34351C26.7099 9.34351 27.1565 9.87215 27.1565 10.5272V57.5134C27.1572 57.6693 27.1318 57.8238 27.0818 57.9681C27.0319 58.1124 26.9583 58.2435 26.8654 58.3541C26.7725 58.4646 26.662 58.5523 26.5404 58.6121C26.4187 58.672 26.2883 58.7028 26.1565 58.7028V58.7028Z" fill="#FFA826"/>
<path d="M13.8999 56.7716C13.67 56.7716 13.4459 56.6854 13.2735 56.513C12.9288 56.1682 12.9288 55.6051 13.2735 55.2546L25.5415 42.9866C25.8863 42.6418 26.4494 42.6418 26.7999 42.9866C27.1447 43.3314 27.1447 43.8945 26.7999 44.245L14.5319 56.513C14.3595 56.6854 14.1297 56.7716 13.8999 56.7716Z" fill="#FFA826"/>
<path d="M26.1679 56.7716C25.938 56.7716 25.7139 56.6854 25.5415 56.513L13.2735 44.245C12.9288 43.9002 12.9288 43.3371 13.2735 42.9866C13.6183 42.6418 14.1814 42.6418 14.5319 42.9866L26.7999 55.2546C27.1447 55.5994 27.1447 56.1625 26.7999 56.513C26.6275 56.6854 26.3977 56.7716 26.1679 56.7716Z" fill="#FFA826"/>
<path d="M26.1679 44.3834H14.1125C13.6241 44.3834 13.2219 43.9869 13.2219 43.4927C13.2219 42.9985 13.6183 42.6021 14.1125 42.6021H26.1737C26.6621 42.6021 27.0643 42.9985 27.0643 43.4927C27.0586 43.9811 26.6621 44.3834 26.1679 44.3834V44.3834Z" fill="#FFA826"/>
<path d="M13.8999 44.4693C13.67 44.4693 13.4459 44.3831 13.2735 44.2107C12.9288 43.866 12.9288 43.3029 13.2735 42.9523L25.5415 30.6844C25.8863 30.3396 26.4494 30.3396 26.7999 30.6844C27.1447 31.0291 27.1447 31.5922 26.7999 31.9428L14.5319 44.205C14.3595 44.3774 14.1297 44.4693 13.8999 44.4693V44.4693Z" fill="#FFA826"/>
<path d="M26.1679 44.4692C25.938 44.4692 25.7139 44.383 25.5415 44.2106L13.2735 31.9369C12.9288 31.5921 12.9288 31.029 13.2735 30.6785C13.6183 30.3337 14.1814 30.3337 14.5319 30.6785L26.7999 42.9465C26.9235 43.0718 27.0073 43.2308 27.0409 43.4035C27.0746 43.5762 27.0566 43.755 26.9891 43.9176C26.9216 44.0801 26.8077 44.2191 26.6617 44.3172C26.5156 44.4154 26.3438 44.4682 26.1679 44.4692Z" fill="#FFA826"/>
<path d="M26.1679 32.1268H14.1125C13.6241 32.1268 13.2219 31.7303 13.2219 31.2361C13.2219 30.7419 13.6183 30.3455 14.1125 30.3455H26.1737C26.6621 30.3455 27.0643 30.7419 27.0643 31.2361C27.0586 31.7245 26.6621 32.1268 26.1679 32.1268V32.1268Z" fill="#FFA826"/>
<path d="M13.8999 32.2589C13.67 32.2589 13.4459 32.1727 13.2735 32.0003C12.9288 31.6555 12.9288 31.0924 13.2735 30.7419L25.5415 18.4739C25.8863 18.1291 26.4494 18.1291 26.7999 18.4739C27.1447 18.8187 27.1447 19.3818 26.7999 19.7323L14.5319 32.0003C14.3595 32.1727 14.1297 32.2589 13.8999 32.2589Z" fill="#FFA826"/>
<path d="M51.5888 20.192C51.359 20.192 51.1349 20.1058 50.9625 19.9334L42.8949 11.8659C42.5502 11.5211 42.5502 10.958 42.8949 10.6075C43.2397 10.2627 43.8028 10.2627 44.1533 10.6075L52.2209 18.675C52.5657 19.0198 52.5657 19.5829 52.2209 19.9334C52.0428 20.1058 51.8187 20.192 51.5888 20.192V20.192Z" fill="#FFA826"/>
<path d="M34.4826 20.192C34.2527 20.192 34.0286 20.1058 33.8562 19.9334C33.5115 19.5887 33.5115 19.0255 33.8562 18.675L41.9238 10.6075C42.2686 10.2627 42.8317 10.2627 43.1822 10.6075C43.527 10.9522 43.527 11.5153 43.1822 11.8659L35.1146 19.9334C34.9365 20.1058 34.7124 20.192 34.4826 20.192V20.192Z" fill="#FFA826"/>
<path d="M67.5631 20.1688C67.2585 20.1688 66.954 20.0539 66.7241 19.8241L58.082 11.1761C57.6165 10.7107 57.6165 9.96368 58.082 9.49825C58.5474 9.03281 59.2944 9.03281 59.7598 9.49825L68.402 18.1404C68.8674 18.6059 68.8674 19.3529 68.402 19.8183C68.1722 20.0539 67.8676 20.1688 67.5631 20.1688V20.1688Z" fill="#FFA826"/>
<path d="M50.882 20.192C50.6522 20.192 50.4281 20.1058 50.2557 19.9334C49.9109 19.5887 49.9109 19.0255 50.2557 18.675L58.3233 10.6075C58.6681 10.2627 59.2312 10.2627 59.5817 10.6075C59.9265 10.9522 59.9265 11.5153 59.5817 11.8659L51.5141 19.9334C51.3417 20.1058 51.1119 20.192 50.882 20.192V20.192Z" fill="#FFA826"/>
<path d="M35.3157 20.192C35.0858 20.192 34.8618 20.1058 34.6894 19.9334L26.6218 11.8659C26.277 11.5211 26.277 10.958 26.6218 10.6075C26.9666 10.2627 27.5297 10.2627 27.8802 10.6075L35.9478 18.675C36.2925 19.0198 36.2925 19.5829 35.9478 19.9334C35.7696 20.1058 35.5455 20.192 35.3157 20.192Z" fill="#FFA826"/>
<path d="M14.848 19.692C14.6182 19.692 14.3941 19.6058 14.2217 19.4334L6.54483 11.7623C6.20006 11.4176 6.20006 10.8545 6.54483 10.5039C6.8896 10.1592 7.45272 10.1592 7.80323 10.5039L15.4743 18.175C15.8191 18.5198 15.8191 19.0829 15.4743 19.4334C15.3019 19.6058 15.0778 19.692 14.848 19.692Z" fill="#FFA826"/>
<path d="M16.0892 19.5198C15.8593 19.5198 15.6352 19.4336 15.4629 19.2612C15.1181 18.9164 15.1181 18.3533 15.4629 18.0028L24.105 9.36063C24.4498 9.01586 25.0129 9.01586 25.3635 9.36063C25.7082 9.70539 25.7082 10.2685 25.3635 10.619L16.7155 19.2612C16.5431 19.4336 16.319 19.5198 16.0892 19.5198V19.5198Z" fill="#FFA826"/>
<path d="M0.884905 19.2094C0.65506 19.2094 0.43096 19.1232 0.258576 18.9508C-0.086192 18.6061 -0.086192 18.0429 0.258576 17.6924L8.13653 9.81448C8.4813 9.46972 9.04442 9.46972 9.39493 9.81448C9.7397 10.1593 9.7397 10.7224 9.39493 11.0729L1.51123 18.9508C1.33885 19.1232 1.109 19.2094 0.884905 19.2094V19.2094Z" fill="#FFA826"/>
<path d="M26.1679 32.2589C25.938 32.2589 25.7139 32.1727 25.5415 32.0003L13.2735 19.7323C12.9288 19.3875 12.9288 18.8244 13.2735 18.4739C13.6183 18.1291 14.1814 18.1291 14.5319 18.4739L26.7999 30.7419C27.1447 31.0867 27.1447 31.6498 26.7999 32.0003C26.6275 32.1727 26.3977 32.2589 26.1679 32.2589Z" fill="#FFA826"/>
<path d="M67.5573 19.8015H1.20665C0.551594 19.8015 0.0229492 19.3549 0.0229492 18.8015C0.0229492 18.2481 0.551594 17.8015 1.20665 17.8015H67.5515C68.2066 17.8015 68.7352 18.2481 68.7352 18.8015C68.7352 19.3549 68.2123 19.8015 67.5573 19.8015Z" fill="#FFA826"/>
<path d="M58.8347 11.125H1.21819C0.563129 11.125 0.0344849 10.6784 0.0344849 10.125C0.0344849 9.5716 0.563129 9.125 1.21819 9.125H58.8347C59.4897 9.125 60.0184 9.5716 60.0184 10.125C60.0184 10.6784 59.4897 11.125 58.8347 11.125Z" fill="#FFA826"/>
<path d="M29.3628 58.6685H10.6591C10.0443 58.6685 9.54437 58.3029 9.54437 57.8533V56.4836C9.54437 56.034 10.0443 55.6685 10.6591 55.6685H29.3628C29.9776 55.6685 30.4775 56.034 30.4775 56.4836V57.8533C30.4775 58.3029 29.9776 58.6685 29.3628 58.6685V58.6685Z" fill="#FFA826"/>
<path d="M25.7714 11.5153C25.3635 11.5153 24.967 11.3026 24.7429 10.9291L20.1345 3.02247L15.5261 10.9062C15.1928 11.4693 14.4688 11.6647 13.9057 11.3314C13.3426 10.9981 13.1472 10.2741 13.4805 9.71097L18.6635 0.844682C18.968 0.321784 19.5311 0 20.1402 0C20.7436 0 21.3124 0.32753 21.617 0.844682L26.8 9.73395C27.1275 10.2971 26.9379 11.0268 26.3748 11.3544C26.1794 11.4635 25.9726 11.5153 25.7714 11.5153V11.5153Z" fill="#FFA826"/>
<path d="M1.18853 20.1633C0.533466 20.1633 0.00482178 19.6347 0.00482178 18.9796V10.3087C0.00482178 9.65364 0.533466 9.125 1.18853 9.125C1.84359 9.125 2.37223 9.65364 2.37223 10.3087V18.9796C2.37299 19.1353 2.34289 19.2895 2.28368 19.4335C2.22446 19.5775 2.1373 19.7083 2.02723 19.8183C1.91716 19.9284 1.78637 20.0156 1.64241 20.0748C1.49845 20.134 1.34419 20.1641 1.18853 20.1633V20.1633Z" fill="#FFA826"/>
</svg>
