<svg width="83" height="60" viewBox="0 0 83 60" fill="none" xmlns="http://www.w3.org/2000/svg">
<path d="M32 22L39.8971 26.8322L41.2706 37.9002L44.6739 39.6194M68.7544 51.7838L65.586 50.1832M65.586 50.1832L81.4284 34.6739L43.4066 28.337V30.2381H44.6739V39.6194M65.586 50.1832L44.6739 39.6194" stroke="#FFA826" stroke-width="2" stroke-linecap="round" stroke-linejoin="round"/>
<path d="M44.2576 55.0122C44.2576 55.0122 42.3785 40.3435 42.2127 39.0495C42.0786 38.0025 42.134 38.4352 42.3308 39.9712C42.5469 41.6584 44.1768 54.3817 44.1768 54.3817" stroke="#FFA826" stroke-width="2" stroke-linecap="round" stroke-linejoin="round"/>
<path d="M78.5033 54.0701C78.5033 55.3124 77.9935 56.5039 77.0861 57.3824C76.1786 58.2609 74.9478 58.7544 73.6644 58.7544C72.3811 58.7544 71.1503 58.2609 70.2428 57.3824C69.3353 56.5039 68.8255 55.3124 68.8255 54.0701C68.8255 53.4549 68.9507 52.8458 69.1939 52.2775C69.437 51.7091 69.7935 51.1927 70.2428 50.7577C70.6921 50.3228 71.2256 49.9777 71.8127 49.7423C72.3998 49.5069 73.029 49.3857 73.6644 49.3857C74.2999 49.3857 74.9291 49.5069 75.5162 49.7423C76.1033 49.9777 76.6367 50.3228 77.0861 50.7577C77.5354 51.1927 77.8918 51.7091 78.135 52.2775C78.3782 52.8458 78.5033 53.4549 78.5033 54.0701" stroke="#FFA826" stroke-width="2" stroke-linecap="round" stroke-linejoin="round"/>
<path d="M1.4595 11.314C1.18765 11.3141 0.923988 11.2209 0.71265 11.05C0.501313 10.879 0.355133 10.6406 0.298587 10.3746C0.24204 10.1087 0.278558 9.83148 0.402028 9.58929C0.525498 9.34709 0.728423 9.15467 0.976829 9.04423L19.2036 0.356072C19.8012 0.0917495 20.5022 0.361817 20.7665 0.959416C21.0308 1.55701 20.7608 2.25804 20.1632 2.52237L1.93643 11.2163C1.78129 11.2852 1.6204 11.314 1.4595 11.314V11.314Z" fill="#78A3AD"/>
<path d="M58.8346 11.4922C58.7484 11.4922 58.6565 11.4807 58.5703 11.4635L20.3183 2.60294C20.1664 2.56864 20.0228 2.50465 19.8957 2.41465C19.7686 2.32465 19.6606 2.21041 19.5778 2.07851C19.495 1.94661 19.4392 1.79965 19.4134 1.64607C19.3876 1.4925 19.3925 1.33534 19.4276 1.18365C19.4619 1.03175 19.5259 0.88813 19.6159 0.76105C19.7059 0.633971 19.8202 0.525939 19.9521 0.443166C20.084 0.360394 20.2309 0.304515 20.3845 0.278743C20.5381 0.252971 20.6952 0.257815 20.8469 0.292995L59.099 9.15928C59.7368 9.30294 60.139 9.94076 59.9896 10.5786C59.9286 10.8389 59.7812 11.071 59.5715 11.2369C59.3618 11.4028 59.102 11.4928 58.8346 11.4922Z" fill="#78A3AD"/>
<path d="M13.7852 58.7028C13.2318 58.7028 12.7852 58.1742 12.7852 57.5191V10.5272C12.7852 9.87215 13.2318 9.34351 13.7852 9.34351C14.3386 9.34351 14.7852 9.87215 14.7852 10.5272V57.5134C14.7852 58.1684 14.3386 58.7028 13.7852 58.7028V58.7028Z" fill="#FFA826"/>
<path d="M26.1565 58.7028C25.6032 58.7028 25.1566 58.1742 25.1566 57.5191V10.5272C25.1566 9.87215 25.6032 9.34351 26.1565 9.34351C26.7099 9.34351 27.1565 9.87215 27.1565 10.5272V57.5134C27.1572 57.6693 27.1318 57.8238 27.0818 57.9681C27.0319 58.1124 26.9583 58.2435 26.8654 58.3541C26.7725 58.4646 26.662 58.5523 26.5404 58.6121C26.4187 58.672 26.2883 58.7028 26.1565 58.7028V58.7028Z" fill="#FFA826"/>
<path d="M13.8999 56.7716C13.67 56.7716 13.4459 56.6854 13.2735 56.513C12.9288 56.1682 12.9288 55.6051 13.2735 55.2546L25.5415 42.9866C25.8863 42.6418 26.4494 42.6418 26.7999 42.9866C27.1447 43.3314 27.1447 43.8945 26.7999 44.245L14.5319 56.513C14.3595 56.6854 14.1297 56.7716 13.8999 56.7716Z" fill="#FFA826"/>
<path d="M26.1679 56.7716C25.938 56.7716 25.7139 56.6854 25.5415 56.513L13.2735 44.245C12.9288 43.9002 12.9288 43.3371 13.2735 42.9866C13.6183 42.6418 14.1814 42.6418 14.5319 42.9866L26.7999 55.2546C27.1447 55.5994 27.1447 56.1625 26.7999 56.513C26.6275 56.6854 26.3977 56.7716 26.1679 56.7716Z" fill="#FFA826"/>
<path d="M26.1679 44.3834H14.1125C13.6241 44.3834 13.2219 43.9869 13.2219 43.4927C13.2219 42.9985 13.6183 42.6021 14.1125 42.6021H26.1737C26.6621 42.6021 27.0643 42.9985 27.0643 43.4927C27.0586 43.9811 26.6621 44.3834 26.1679 44.3834V44.3834Z" fill="#FFA826"/>
<path d="M13.8999 44.4693C13.67 44.4693 13.4459 44.3831 13.2735 44.2107C12.9288 43.866 12.9288 43.3029 13.2735 42.9523L25.5415 30.6844C25.8863 30.3396 26.4494 30.3396 26.7999 30.6844C27.1447 31.0291 27.1447 31.5922 26.7999 31.9428L14.5319 44.205C14.3595 44.3774 14.1297 44.4693 13.8999 44.4693V44.4693Z" fill="#FFA826"/>
<path d="M26.1679 44.4692C25.938 44.4692 25.7139 44.383 25.5415 44.2106L13.2735 31.9369C12.9288 31.5921 12.9288 31.029 13.2735 30.6785C13.6183 30.3337 14.1814 30.3337 14.5319 30.6785L26.7999 42.9465C26.9235 43.0718 27.0073 43.2308 27.0409 43.4035C27.0746 43.5762 27.0566 43.755 26.9891 43.9176C26.9216 44.0801 26.8077 44.2191 26.6617 44.3172C26.5156 44.4154 26.3438 44.4682 26.1679 44.4692Z" fill="#FFA826"/>
<path d="M26.1679 32.1268H14.1125C13.6241 32.1268 13.2219 31.7303 13.2219 31.2361C13.2219 30.7419 13.6183 30.3455 14.1125 30.3455H26.1737C26.6621 30.3455 27.0643 30.7419 27.0643 31.2361C27.0586 31.7245 26.6621 32.1268 26.1679 32.1268V32.1268Z" fill="#FFA826"/>
<path d="M13.8999 32.2589C13.67 32.2589 13.4459 32.1727 13.2735 32.0003C12.9288 31.6555 12.9288 31.0924 13.2735 30.7419L25.5415 18.4739C25.8863 18.1291 26.4494 18.1291 26.7999 18.4739C27.1447 18.8187 27.1447 19.3818 26.7999 19.7323L14.5319 32.0003C14.3595 32.1727 14.1297 32.2589 13.8999 32.2589Z" fill="#FFA826"/>
<path d="M51.1856 20C50.9755 20 50.7706 19.9124 50.613 19.7373L43.2364 11.5412C42.9212 11.1909 42.9212 10.6188 43.2364 10.2627C43.5517 9.91243 44.0666 9.91243 44.387 10.2627L51.7636 18.4588C52.0788 18.8091 52.0788 19.3812 51.7636 19.7373C51.6007 19.9124 51.3958 20 51.1856 20V20Z" fill="#FFA826"/>
<path d="M34.8091 20C34.599 20 34.394 19.9124 34.2364 19.7373C33.9212 19.387 33.9212 18.8149 34.2364 18.4588L41.613 10.2627C41.9282 9.91243 42.4431 9.91243 42.7636 10.2627C43.0788 10.613 43.0788 11.1851 42.7636 11.5412L35.387 19.7373C35.2242 19.9124 35.0193 20 34.8091 20V20Z" fill="#FFA826"/>
<path d="M66.9218 20C66.6454 20 66.369 19.8853 66.1604 19.6558L58.3168 11.0233C57.8944 10.5587 57.8944 9.81306 58.3168 9.34846C58.7392 8.88385 59.4172 8.88385 59.8396 9.34846L67.6832 17.9752C68.1056 18.4398 68.1056 19.1855 67.6832 19.6501C67.4746 19.8853 67.1982 20 66.9218 20V20Z" fill="#FFA826"/>
<path d="M50.899 20C50.6655 20 50.4378 19.9124 50.2627 19.7373C49.9124 19.387 49.9124 18.8149 50.2627 18.4588L58.4588 10.2627C58.8091 9.91243 59.3812 9.91243 59.7373 10.2627C60.0876 10.613 60.0876 11.1851 59.7373 11.5412L51.5412 19.7373C51.366 19.9124 51.1325 20 50.899 20V20Z" fill="#FFA826"/>
<path d="M34.1856 20C33.9755 20 33.7706 19.9124 33.613 19.7373L26.2364 11.5412C25.9212 11.1909 25.9212 10.6188 26.2364 10.2627C26.5517 9.91243 27.0665 9.91243 27.387 10.2627L34.7636 18.4588C35.0788 18.8091 35.0788 19.3812 34.7636 19.7373C34.6007 19.9124 34.3958 20 34.1856 20Z" fill="#FFA826"/>
<path d="M14.848 19.692C14.6182 19.692 14.3941 19.6058 14.2217 19.4334L6.54483 11.7623C6.20006 11.4176 6.20006 10.8545 6.54483 10.5039C6.8896 10.1592 7.45272 10.1592 7.80323 10.5039L15.4743 18.175C15.8191 18.5198 15.8191 19.0829 15.4743 19.4334C15.3019 19.6058 15.0778 19.692 14.848 19.692Z" fill="#FFA826"/>
<path d="M16.0892 19.5198C15.8593 19.5198 15.6352 19.4336 15.4629 19.2612C15.1181 18.9164 15.1181 18.3533 15.4629 18.0028L24.105 9.36063C24.4498 9.01586 25.0129 9.01586 25.3635 9.36063C25.7082 9.70539 25.7082 10.2685 25.3635 10.619L16.7155 19.2612C16.5431 19.4336 16.319 19.5198 16.0892 19.5198V19.5198Z" fill="#FFA826"/>
<path d="M0.884905 19.2094C0.65506 19.2094 0.43096 19.1232 0.258576 18.9508C-0.086192 18.6061 -0.086192 18.0429 0.258576 17.6924L8.13653 9.81448C8.4813 9.46972 9.04442 9.46972 9.39493 9.81448C9.7397 10.1593 9.7397 10.7224 9.39493 11.0729L1.51123 18.9508C1.33885 19.1232 1.109 19.2094 0.884905 19.2094V19.2094Z" fill="#FFA826"/>
<path d="M26.1679 32.2589C25.938 32.2589 25.7139 32.1727 25.5415 32.0003L13.2735 19.7323C12.9288 19.3875 12.9288 18.8244 13.2735 18.4739C13.6183 18.1291 14.1814 18.1291 14.5319 18.4739L26.7999 30.7419C27.1447 31.0867 27.1447 31.6498 26.7999 32.0003C26.6275 32.1727 26.3977 32.2589 26.1679 32.2589Z" fill="#FFA826"/>
<path d="M66.8343 20H1.17143C0.523164 20 0 19.5534 0 19C0 18.4466 0.523164 18 1.17143 18H66.8286C67.4768 18 68 18.4466 68 19C68 19.5534 67.4825 20 66.8343 20Z" fill="#FFA826"/>
<path d="M58.8347 11.125H1.21819C0.563129 11.125 0.0344849 10.6784 0.0344849 10.125C0.0344849 9.5716 0.563129 9.125 1.21819 9.125H58.8347C59.4897 9.125 60.0184 9.5716 60.0184 10.125C60.0184 10.6784 59.4897 11.125 58.8347 11.125Z" fill="#FFA826"/>
<path d="M29.3628 58.6685H10.6591C10.0443 58.6685 9.54437 58.3029 9.54437 57.8533V56.4836C9.54437 56.034 10.0443 55.6685 10.6591 55.6685H29.3628C29.9776 55.6685 30.4775 56.034 30.4775 56.4836V57.8533C30.4775 58.3029 29.9776 58.6685 29.3628 58.6685V58.6685Z" fill="#FFA826"/>
<path d="M25.7714 11.5153C25.3635 11.5153 24.967 11.3026 24.7429 10.9291L20.1345 3.02247L15.5261 10.9062C15.1928 11.4693 14.4688 11.6647 13.9057 11.3314C13.3426 10.9981 13.1472 10.2741 13.4805 9.71097L18.6635 0.844682C18.968 0.321784 19.5311 0 20.1402 0C20.7436 0 21.3124 0.32753 21.617 0.844682L26.8 9.73395C27.1275 10.2971 26.9379 11.0268 26.3748 11.3544C26.1794 11.4635 25.9726 11.5153 25.7714 11.5153V11.5153Z" fill="#FFA826"/>
<path d="M0.999994 20C0.446599 20 0 19.4732 0 18.8204V10.1796C0 9.52681 0.446599 9 0.999994 9C1.55339 9 1.99999 9.52681 1.99999 10.1796V18.8204C2.00063 18.9755 1.9752 19.1292 1.92518 19.2727C1.87515 19.4162 1.80152 19.5465 1.70853 19.6562C1.61554 19.7659 1.50505 19.8527 1.38343 19.9117C1.26182 19.9708 1.13149 20.0007 0.999994 20V20Z" fill="#FFA826"/>
</svg>
