<svg width="60" height="60" viewBox="0 0 60 60" fill="none" xmlns="http://www.w3.org/2000/svg">
<path d="M60 15C59.8828 19.0625 58.3691 22.5781 55.459 25.5469C52.5488 28.5156 49.0625 30 45 30C43.8672 30 42.6953 29.8438 41.4844 29.5312C41.7969 30.7422 42.4512 31.748 43.4473 32.5488C44.4434 33.3496 45.5859 33.75 46.875 33.75L52.5 39.375L57.3047 44.3555C59.1016 46.1523 60 48.3105 60 50.8301C60 53.3496 59.1016 55.498 57.3047 57.2754C55.5078 59.0527 53.3496 59.9414 50.8301 59.9414C48.3105 59.9414 46.1523 59.0625 44.3555 57.3047L39.375 52.5L33.75 46.875C33.75 45.3125 33.2031 43.9844 32.1094 42.8906C31.0156 41.7969 29.6875 41.25 28.125 41.25L27.7148 40.8398V40.7812L13.2422 59.4727C12.8516 59.8242 11.1621 60 8.17383 60C5.18555 60 3.51562 59.8242 3.16406 59.4727L0.527344 56.8945C0.175781 56.5039 0 54.8145 0 51.8262C0 48.8379 0.175781 47.1484 0.527344 46.7578L25.1367 27.7148L12.4805 15H5.625L0 3.75L3.75 0L15 5.625V12.4219L28.0078 25.4883L31.875 22.5C31.875 22.4609 31.8945 22.4414 31.9336 22.4414H31.9922C30.6641 20.0977 30 17.6172 30 15C30 10.9375 31.4746 7.44141 34.4238 4.51172C37.373 1.58203 40.8984 0.078125 45 0V2.22656L40.1953 6.79688C38.3984 8.59375 37.5 10.752 37.5 13.2715C37.5 15.791 38.3984 17.9492 40.1953 19.7461C41.9922 21.543 44.1602 22.4414 46.6992 22.4414C49.2383 22.4414 51.4062 21.543 53.2031 19.7461L57.7148 15H60ZM7.5 48.75C6.44531 48.75 5.55664 49.1113 4.83398 49.834C4.11133 50.5566 3.75 51.4355 3.75 52.4707C3.75 53.5059 4.11133 54.3945 4.83398 55.1367C5.55664 55.8789 6.44531 56.25 7.5 56.25C8.55469 56.25 9.44336 55.8789 10.166 55.1367C10.8887 54.3945 11.25 53.5059 11.25 52.4707C11.25 51.4355 10.8887 50.5566 10.166 49.834C9.44336 49.1113 8.55469 48.75 7.5 48.75Z" fill="#FFA826"/>
</svg>
